<svg viewBox="0 0 50 50"
    xmlns="http://www.w3.org/2000/svg"
    height="40"
    width="40"
  >
    <g transform="translate(-5 -5)" fill="none">
      <rect fill="#060606" x="5" y="5" width="50" height="50" rx="2.5" />
      <g fill="#FFF">
        <path d="M29.091 25.475v-3.881c-1.456-.551-2.387-2.006-2.387-3.801 0-2.328 1.519-4.041 3.717-4.041 2.167 0 3.686 1.711 3.686 4.041 0 1.788-.924 3.239-2.355 3.794v3.888c3.755-.586 6.592-3.623 6.592-7.682 0-4.527-3.524-7.793-7.923-7.793-4.395 0-7.92 3.266-7.92 7.793-.001 4.06 2.836 7.094 6.59 7.682M31.75 33.767v3.883c1.432.548 2.357 1.985 2.357 3.8 0 2.295-1.52 4.04-3.686 4.04-2.198 0-3.718-1.745-3.718-4.04 0-1.82.932-3.261 2.388-3.807v-3.877c-3.754.586-6.591 3.623-6.591 7.682 0 4.525 3.525 7.792 7.921 7.792 4.397 0 7.922-3.267 7.922-7.792-.001-4.058-2.837-7.094-6.593-7.68" />
      </g>
    </g>
  </svg>